<svg version="1.2" xmlns="http://www.w3.org/2000/svg" viewBox="0 0 2000 2000" width="2000" height="2000">
	<style>
		.s0 { fill: #000000;stroke: #000000;stroke-miterlimit:10 } 
		.s1 { fill: #000000 } 
	</style>
	<g id="Layer 1">
		<g id="black">
			<path id="Shape 1" fill-rule="evenodd" class="s0" d="m824.5 1402.31l97-100c0 0 632.5 35.55 413.5-612.45l78-214.5c0 0 309 49.5 558 423 0 0-231 442.5-882 526.5 0 0-81.5 196.5-90 195-8.5-1.5-85.5-201-85.5-201 0 0-76-9.09-89-16.55zm990.5-500.95c-208.5-238.5-403.5-301.5-403.5-301.5 216 415.5 4.5 601.5 4.5 601.5 156-15 399-300 399-300zm-361-685.5l-303 778.5-610.5 613.5 313.5-787.5 30-39zm-402 640.14c0 0 27 15.36 13.5 84.36 0 0-45 54-88.5 34.5 0 0-42-22.5-43.5-40.5 0 0-16.5-51.36 22.5-87 0 0 27-21 48-13.5 21 7.5 30 9.78 48 22.14zm125-451.09l-97 100c0 0-632.5-35.55-413.5 612.45l-78 214.5c0 0-309-49.5-558-423 0 0 231-442.5 882-526.5 0 0 81.5-196.5 90-195 8.5 1.5 85.5 201 85.5 201 0 0 76 9.09 89 16.55zm-990.5 500.95c208.5 238.5 403.5 301.5 403.5 301.5-216-415.5-4.5-601.5-4.5-601.5-156 15-399 300-399 300z"/>
			<path id="ALGERIA EYE" class="s1" aria-label="ALGERIA EYE"  d="m358.1 1819h-26.1l61.5-136.8h25.1l61.6 136.8h-26.5l-52.9-123.2h10.2zm89.8-31.7h-87.5l6.7-19.9h73.9zm146.2 31.6h-96.8v-136.7h25.4v115.3h71.4zm82 1.9q-15.9 0-29.5-5.1-13.3-5.3-23.4-14.6-9.8-9.6-15.5-22.3-5.3-13-5.3-28.3 0-15.3 5.3-28.2 5.7-12.8 15.7-22.2 10.1-9.6 23.4-14.7 13.6-5.2 29.8-5.2 17.2 0 31.2 5.6 14 5.7 23.6 16.7l-16 15.6q-8-8.1-17.4-11.8-9.2-4-20.3-4-10.8 0-20.1 3.6-9 3.5-15.9 10-6.4 6.4-10.1 15.2-3.6 8.8-3.6 19.4 0 10.3 3.6 19.3 3.7 8.7 10.1 15.3 6.9 6.4 15.9 10.1 9.1 3.4 19.9 3.4 10.2 0 19.5-3.2 9.6-3.2 18.2-10.9l14.4 18.9q-10.7 8.6-24.9 13.1-14.1 4.3-28.6 4.3zm53.5-71.8v54.4l-23.9-3.3v-51.1zm136.2 69.9h-102.5v-136.8h99.8v21.3h-74.5v94.1h77.2zm-11-59h-68.1v-20.8h68.1zm64.9 59h-25.4v-136.7h55.9q27.4 0 42.9 13 15.6 12.8 15.6 35.6 0 15-7.2 26-6.8 10.7-19.9 16.6-13 5.7-31.1 5.7h-42.1l11.3-11.5zm91.4 0h-27.4l-34.6-49.6h27.2zm-91.5-127.8v79.2l-11.3-12.3h41.1q16.7 0 25.1-7.1 8.6-7.2 8.6-20.1 0-13-8.6-20-8.4-7.3-25.1-7.3h-41.1zm142 127.8h-25.3v-136.8h25.3zm44.4 0h-26.2l61.5-136.8h25.1l61.6 136.8h-26.5l-52.9-123.2h10.2zm89.8-31.7h-87.5l6.8-19.9h73.8zm205.9 31.6h-102.5v-136.7h99.8v21.3h-74.5v94.1h77.2zm-11-59.1h-68.1v-20.8h68.1zm96.4 59.1h-25.4v-54l5.8 15.4-59.4-98.2h27l47.8 79.2h-15.2l48-79.2h25l-59.4 98.2 5.8-15.4zm170.6 0h-102.5v-136.8h99.8v21.3h-74.5v94.1h77.2zm-11-59h-68.1v-20.8h68.1z"/>
		</g>
	</g>
</svg>