<svg version="1.2" xmlns="http://www.w3.org/2000/svg" viewBox="0 0 2000 750" width="2000" height="750"><style>.a{fill:#fff}</style><path fill-rule="evenodd" class="a" d="m409.2 631.9l50-51.5c0 0 325.9 18.3 213-315.6l40.2-110.6c0 0 159.3 25.5 287.6 218 0 0-119 228-454.5 271.3 0 0-42 101.3-46.4 100.5-4.4-0.7-44.1-103.6-44.1-103.6 0 0-39.1-4.6-45.8-8.5zm510.4-258.1c-107.4-122.9-207.9-155.4-207.9-155.4 111.3 214.1 2.3 310 2.3 310 80.4-7.8 205.6-154.6 205.6-154.6zm-186-353.3l-156.2 401.2-314.6 316.1 161.6-405.8 15.4-20.1zm-207.1 329.9c0 0 13.9 7.9 6.9 43.5 0 0-23.2 27.8-45.6 17.8 0 0-21.6-11.6-22.4-20.9 0 0-8.5-26.5 11.6-44.8 0 0 13.9-10.9 24.7-7 10.9 3.9 15.5 5 24.8 11.4zm64.4-232.5l-50 51.6c0 0-325.9-18.3-213.1 315.6l-40.2 110.5c0 0-159.2-25.5-287.5-218 0 0 119-228 454.5-271.3 0 0 42-101.2 46.4-100.5 4.3 0.8 44 103.6 44 103.6 0 0 39.2 4.7 45.9 8.5zm-510.4 258.2c107.4 122.9 207.9 155.4 207.9 155.4-111.3-214.1-2.3-310-2.3-310-80.4 7.7-205.6 154.6-205.6 154.6z"/><path class="a" d="m1018.5 431h-19.2l45.3-100.8h18.5l45.4 100.8h-19.6l-38.9-90.8h7.5zm66.2-23.4h-64.5l5-14.7h54.3zm108.2 23.4h-71.3v-100.8h18.7v85h52.6zm60.7 1.4q-11.7 0-21.7-3.7-9.9-3.9-17.3-10.8-7.2-7.1-11.4-16.5-3.9-9.5-3.9-20.8 0-11.3 3.9-20.8 4.2-9.4 11.6-16.4 7.4-7 17.2-10.8 10.1-3.9 22-3.9 12.7 0 23 4.2 10.3 4.2 17.4 12.3l-11.8 11.5q-5.9-6-12.8-8.7-6.8-2.9-15-2.9-8 0-14.8 2.6-6.6 2.6-11.7 7.4-4.8 4.7-7.5 11.2-2.6 6.5-2.6 14.3 0 7.6 2.6 14.2 2.7 6.4 7.5 11.3 5.1 4.7 11.7 7.4 6.6 2.5 14.6 2.5 7.5 0 14.4-2.3 7.1-2.4 13.4-8.1l10.6 14q-7.8 6.3-18.3 9.6-10.4 3.2-21.1 3.2zm39.4-52.9v40.1l-17.6-2.5v-37.6zm100.1 51.5h-75.5v-100.8h73.5v15.7h-54.9v69.3h56.9zm-8.1-43.5h-50.2v-15.3h50.2zm47.3 43.5h-18.7v-100.8h41.2q20.2 0 31.6 9.7 11.5 9.4 11.5 26.2 0 11-5.3 19.1-5 7.9-14.7 12.3-9.6 4.2-22.9 4.2h-31.1l8.4-8.5zm67.4 0h-20.2l-25.6-36.6h20.1zm-67.4-94.1v58.3l-8.3-9h30.2q12.3 0 18.5-5.3 6.4-5.3 6.4-14.8 0-9.6-6.4-14.7-6.2-5.4-18.5-5.4h-30.2zm105 94.1h-18.7v-100.8h18.7zm32.2 0h-19.3l45.4-100.8h18.4l45.5 100.8h-19.6l-38.9-90.8h7.4zm66.2-23.3h-64.5l5-14.7h54.4zm152.4 23.3h-75.5v-100.8h73.5v15.8h-54.9v69.3h56.9zm-8.1-43.5h-50.2v-15.3h50.2zm70.9 43.5h-18.7v-39.8l4.3 11.4-43.8-72.4h20l35.2 58.3h-11.2l35.3-58.3h18.5l-43.8 72.4 4.2-11.4zm126.2 0h-75.5v-100.8h73.5v15.7h-54.9v69.3h56.9zm-8.1-43.5h-50.2v-15.3h50.2z"/></svg>