<svg id="Layer_1" data-name="Layer 1" xmlns="http://www.w3.org/2000/svg" viewBox="0 0 1080 1080"><defs><style>.cls-1{fill:#006633}</style></defs><path class="cls-1" d="M531.98,339.5c-10.48-11.51-21.92-22.14-32.95-33.14-1.15.71-2.29,1.43-3.44,2.14,0,22.6,2.44,45.53-.55,67.73-5.05,37.48,6.66,66.12,36.98,87.82.59.42,1.14.93,1.62,1.48,4.2,4.84,8.1,5.18,12.83.24,10.35-10.8,21.49-20.86,31.4-32.03,3.49-3.93,5.98-10.2,6.07-15.44.58-33.7.4-67.42.37-101.13,0-2.72-.69-5.45-1.37-10.44-4.26,3.13-7.23,4.82-9.58,7.14-8.58,8.45-17.18,16.91-25.35,25.75-5.72,6.19-10,6.52-16.04-.11Z"/><path class="cls-1" d="M312.4,584.48c36.27.13,72.54.2,108.81.1,2.79,0,6.44-.45,8.22-2.19,13.74-13.39,27.12-27.14,41.3-41.49-13.73-13.46-26.25-26.26-39.47-38.3-3.06-2.79-8.49-4.1-12.85-4.15-33.34-.35-66.69-.27-100.03-.15-3.54.01-7.07,1.17-10.6,1.79-.86,1.54-1.72,3.09-2.58,4.63,13.76,11.78,27.53,23.56,43.33,37.09-15.55,14.88-28.9,27.65-42.97,41.11,2.84.67,4.84,1.54,6.83,1.54Z"/><path class="cls-1" d="M547.94,742.45c8.66,9.42,17.92,18.28,27.12,27.19,2.06,1.99,4.89,3.19,9.18,5.89,0-40.25.09-77.94-.19-115.63-.02-2.9-2.08-6.35-4.2-8.58-11.35-11.9-22.98-23.54-34.6-35.17-3.93-3.93-7.61-4.62-12.08.11-9.81,10.38-20.84,19.68-29.97,30.6-4.29,5.12-7.18,12.86-7.51,19.58-.94,19.38-.25,38.83-.22,58.26.02,16.29,0,32.59,0,48.88,1.05.33,2.11.66,3.16.98,3.06-2.5,6.31-4.8,9.14-7.54,8.41-8.17,16.93-16.25,24.86-24.88,5.67-6.18,9.84-5.63,15.3.32Z"/><path class="cls-1" d="M764.76,498.25c-35.1-.08-70.19-.1-105.29.05-3.16.01-7.31.25-9.3,2.16-13.61,13.09-26.77,26.65-41.29,41.29,12.91,12.61,24.24,24.51,36.55,35.29,4.44,3.89,11.18,7.08,16.95,7.2,31.42.65,62.87.24,94.31.2,5.57,0,11.13,0,16.7,0,.48-1.2.95-2.4,1.43-3.6-13.82-12.71-27.63-25.41-42.68-39.26,14.69-14.76,27.58-27.73,41.41-41.62-3.95-.8-6.36-1.71-8.78-1.72Z"/><path class="cls-1" d="M565.24,226.08c6.78,3.16,18.31.36,21.97,4.87,4.06,5,1.56,15.31,1.91,23.31.06,1.46.05,2.93.05,4.4,0,9.26,0,18.52,0,28.2,3.25-.64,4.2-.54,4.62-.95,25.92-25.85,51.88-51.64,77.52-77.76,2.51-2.56,4.12-7.09,4.22-10.75.43-16.1,0-32.23.19-48.34.08-7.14-2.91-9.56-9.99-9.33-13.54.43-27.16-.68-40.63.37-6.37.5-13.9,2.98-18.44,7.22-19.52,18.24-38.18,37.41-56.98,56.42-1.79,1.81-3.91,6.43-3.29,7.02,5.9,5.59,11.7,12.01,18.85,15.35Z"/><path class="cls-1" d="M789.47,345.47c6.35,5.06,6.19,9.27,0,14.9-12.38,11.25-24.06,23.26-37.68,36.56,4.48,1.3,5.81,2.03,7.15,2.03,36.61.08,73.23.22,109.84-.12,3.51-.03,7.69-2.4,10.36-4.94,11.13-10.59,21.57-21.9,32.73-32.46,5.66-5.36,5.36-9.45.05-14.63-10.99-10.72-21.51-21.93-32.62-32.53-2.67-2.55-6.85-4.91-10.38-4.96-28.55-.4-57.11-.2-85.67-.24-5.32,0-7.08,2.03-7.9,7.73-1.92,13.27,4.97,21.35,14.14,28.65Z"/><path class="cls-1" d="M486.74,654.81c2.06-2.09,3.54-5.71,3.59-8.65.31-16.11.04-32.23.08-48.34.01-5.97-2.59-8.44-8.7-8.33-13.18.26-26.45-.9-39.51.38-6.99.69-15.09,3.63-20.11,8.32-19.52,18.21-38.03,37.49-56.85,56.44-6.84,6.89-13.49,13.96-20.23,20.95.54.96,1.09,1.92,1.63,2.89,10.89,0,21.78,0,32.67,0,25.15,0,23.36-3.91,23.3,23.49-.02,10.68,0,21.36,0,33.79,4.12-2.15,6.29-2.72,7.66-4.08,25.58-25.53,51.13-51.09,76.46-76.86Z"/><path class="cls-1" d="M669.14,350.53c-25.08,25.03-50.24,49.99-75.03,75.32-2.73,2.79-4.54,7.64-4.68,11.61-.56,15.34-.12,30.72-.36,46.08-.12,7.64,3.23,10.2,10.69,9.92,12.78-.47,25.66.64,38.36-.51,6.26-.57,13.51-3.29,18.03-7.49,17.08-15.89,33.24-32.76,49.71-49.3,9.61-9.65,19.14-19.36,30.66-31.01-6.3-.5-9.73-.98-13.17-1-12.8-.08-25.61-.18-38.4.09-7.02.15-9.81-2.58-9.53-9.76.49-12.42.36-24.87.29-37.31-.02-2.91-.81-5.82-1.45-10.03-2.86,1.87-4.18,2.45-5.13,3.4Z"/><path class="cls-1" d="M197.7,392.11c4.07,3.75,10.68,6.53,16.18,6.63,34,.6,68.01.34,102.01.29,3.11,0,6.21-.5,10.05-.82-.55-2.35-.52-2.82-.74-3.04-8.71-8.82-17.36-17.69-26.18-26.4q-15.76-15.56-.74-30.98c1.02-1.05,2.75-1.99,2.93-3.16,1.1-7.39,2.63-14.9,2.05-22.21-.12-1.45-8.76-3.1-13.5-3.16-24.86-.32-49.73-.34-74.59,0-4.43.06-10.01,1.02-13.05,3.78-12.16,11.03-23.86,22.65-34.92,34.78-2.1,2.3-2.37,9.44-.42,11.75,9.66,11.41,19.91,22.42,30.9,32.55Z"/><path class="cls-1" d="M939.61,619.72c-.13-3.92-2.21-8.64-4.95-11.49-20.03-20.82-40.46-41.26-61.04-62.09-15.46,7.9-19.17,13.7-19.25,28.51q-.08,14.88-15.15,14.94c-9.52.02-19.04-.16-28.55-.02-5.17.08-10.33.64-16.77,1.07,2.06,3.69,2.75,5.9,4.19,7.35,25.04,25.15,50.02,50.36,75.49,75.08,3.22,3.12,9.03,4.72,13.74,4.94,14.25.65,28.56-.08,42.81.46,7.23.27,9.83-2.27,9.73-9.32-.23-16.47.27-32.96-.25-49.42Z"/><path class="cls-1" d="M191.35,677.94c5.96-.43,13.02-3,17.25-7.05,23.79-22.79,46.91-46.28,70.13-69.66,2.59-2.61,4.38-6.02,7.66-10.64-5.03-.48-7.78-.95-10.53-.96-13.91-.07-27.83-.3-41.73.11-6.68.2-9.44-2.11-9.02-8.8.32-5.11,1.7-11.05-.31-15.2-3.14-6.49-8.37-12.18-13.62-17.28-1.18-1.14-7.06.63-9.17,2.7-19.31,19-38.38,38.24-57.18,57.74-2.51,2.6-4.36,6.97-4.46,10.58-.46,16.84-.09,33.7-.24,50.55-.05,5.97,2.05,8.52,8.39,8.36,14.27-.37,28.61.56,42.83-.46Z"/><path class="cls-1" d="M466.3,266.09c6.84,6.82,13.65,13.67,22.77,22.79.71-6.78,1.33-10.17,1.36-13.56.11-11.71.6-23.45-.18-35.11-.73-10.87,3.86-15.07,14.04-13.51,11,1.68,18.72-3.05,26.07-10.66,4.88-5.05,4.32-8.21-.2-12.63-11.75-11.52-24.45-22.34-34.6-35.16-18.12-22.91-40.19-33.66-69.39-28.56-3.2.56-6.62.47-9.85.03-10.07-1.4-12.57,3.53-12.23,12.65.49,13.15.9,26.42-.37,39.47-.77,7.92,1.36,13.3,6.62,18.51,18.72,18.51,37.31,37.16,55.94,55.76Z"/><path class="cls-1" d="M886.98,404.41c-5.25.24-11.61,2.58-15.31,6.17-24.63,23.91-48.7,48.39-72.87,72.77-2.09,2.1-3.56,4.82-5.59,7.62,2.31,1.15,3.23,2,4.17,2.02,11.7.2,23.41.38,35.11.35,21-.06,21-.12,21.85,20.18.05,1.1-.34,2.54.22,3.24,4.63,5.82,8.88,12.2,14.58,16.73,1.37,1.09,8.43-3.4,11.68-6.55,18.13-17.54,35.94-35.41,53.7-53.32,2.2-2.22,4.89-5.35,4.95-8.1.42-20.02.23-40.06.23-61.39-18.48,0-35.63-.48-52.72.29Z"/><path class="cls-1" d="M763.39,778.63c-10.37-2.13-18.74,1.2-26.09,9.65-9.47,10.9-10.11,10.35-20.34.05-8.49-8.55-16.88-17.2-25.51-25.6-2.63-2.56-5.93-4.45-9.24-6.88-.89,2.23-1.38,2.91-1.39,3.58-.08,36.23-.21,72.46.01,108.69.02,3.34,1.54,7.35,3.72,9.88,12.63,14.63,25.67,28.92,39.95,44.86,16.83-17.16,29.91-30.29,42.68-43.73,1.76-1.86,2.72-5.2,2.75-7.87.4-28.54.72-57.09.43-85.63-.02-2.45-4.19-6.44-6.98-7.01Z"/><path class="cls-1" d="M345.52,404.11c17.5,20.83,37.24,37.73,53.59,57.46,20.18,24.35,43.03,38.19,75.37,31.82,1.75-.34,3.66-.04,5.48.14,7.46.74,10.7-2.44,10.56-10.06-.26-14.28.65-28.62-.34-42.84-.41-5.9-3.06-12.88-7.09-17.08-21.25-22.17-43.25-43.61-65.01-65.28-3.97-3.95-8-7.83-12.01-11.75-1.2.57-2.4,1.14-3.61,1.71,0,13.8.02,27.6,0,41.4q-.02,14.41-14.6,14.47c-14.11.03-28.22,0-42.33,0Z"/><path class="cls-1" d="M693.19,678.43c13.33-.02,26.66,0,43.09,0-4.9-5.96-7.52-9.71-10.68-12.91-19-19.22-38.72-37.76-56.99-57.65-12.5-13.6-26.01-21.24-44.91-18.41-7.51,1.12-15.37.62-23-.02-8.59-.72-11.93,2.44-11.65,11.12.44,13.52-.73,27.14.44,40.57.54,6.2,3.63,13.38,7.92,17.85,22.66,23.66,46.06,46.62,69.26,69.77,2.15,2.15,4.66,3.93,8.84,7.41.89-5.39,1.76-8.4,1.81-11.42.18-10.24.14-20.48.04-30.72-.14-15.54-.19-15.56,15.84-15.59Z"/><path class="cls-1" d="M675.26,886.87c-.37-5.56-3.01-12.07-6.78-16.12-14.4-15.48-29.63-30.17-44.64-45.08-10.48-10.41-21.09-20.69-33.63-32.96-.5,6.63-1,10.48-1.03,14.33-.1,12.07-.45,24.16.12,36.21.4,8.62-2.84,12.8-11.33,11.29-15.45-2.74-24.55,5.79-32.57,17.09.53,1.1.78,2.26,1.49,2.97,20.32,20.55,40.45,41.29,61.25,61.35,3.5,3.37,9.81,5.02,14.93,5.28,13.87.69,27.81-.12,41.7.31,8.02.25,11.29-2.61,11.05-10.77-.42-14.63.42-29.31-.56-43.89Z"/><path class="cls-1" d="M684.03,326.3c14.32-13.93,28.64-27.86,43.4-42.23,6.2,5.89,10.94,12.67,17.45,15.94,6.31,3.17,14.4,3.1,21.77,3.5,1.17.06,3.75-4.91,3.76-7.57.16-27.09.22-54.19-.49-81.27-.13-4.89-2.83-10.67-6.18-14.35-10.06-11.05-21.3-21-31.51-31.92-4.3-4.6-7.3-4.94-11.67-.63-11.43,11.29-23.39,22.06-34.4,33.74-3.1,3.28-5.08,8.94-5.15,13.54-.5,33.32-.4,66.64-.43,99.96,0,3.14.45,6.27.69,9.41.92.63,1.84,1.26,2.76,1.88Z"/><path class="cls-1" d="M504.94,854.26c-13.71,1.69-14.45-.1-14.45-14.6v-43.42c-1.23-.45-2.45-.89-3.68-1.34-26.98,27.16-54.03,54.25-80.82,81.6-2.02,2.06-2.99,6.01-2.96,9.07.15,15.34,1,30.67,1.16,46.01.07,6.91,2.63,10.03,9.74,9.92,15.01-.23,30.05.47,45.02-.34,4.9-.27,10.52-3.01,14.24-6.37,10.31-9.3,19.82-19.51,29.61-29.39,10.95-11.05,21.87-22.14,33.09-33.5-9.71-8.95-16.01-19.49-30.96-17.65Z"/><path class="cls-1" d="M143.93,472.23c19.51,19.83,39.45,39.24,59.08,58.96,4.36,4.38,7.66,4.06,12.08.06,6.87-6.21,10.85-12.89,10.32-22.81-.8-15.15-.16-15.16,15.42-15.13,14.92.03,29.85,0,48.34,0-4.22-5.28-5.97-7.92-8.16-10.14-18.99-19.23-38.95-37.58-56.81-57.81-14.77-16.72-31.12-24.86-53.55-21.48-9.81,1.48-20.03.25-30.45.25,0,20.87-.17,39.54.16,58.21.06,3.36,1.3,7.59,3.55,9.88Z"/><path class="cls-1" d="M290.08,721.69c11.98-11.11,23.32-22.9,37.35-36.82-6.28-.7-9.35-1.33-12.42-1.34-31.5-.06-63.02.57-94.5-.32-12.5-.35-21.51,3.22-29.38,12.69-7.22,8.69-15.45,16.57-23.55,24.49-4.85,4.75-5.58,8.58-.29,13.66,11.87,11.38,23.19,23.33,35.1,34.68,2.4,2.29,6.37,4.09,9.64,4.13,27.83.36,55.68.26,83.51.32,6.59.02,7.97-3.68,9.06-9.68,2.44-13.44-6.84-20.2-14.52-27.64-5.52-5.36-5.78-8.82,0-14.18Z"/><path class="cls-1" d="M396.37,757.81c-2.3.28-3.75,0-4.37.6-7.65,7.32-15.24,14.71-22.72,22.2q-16.34,16.39-33.07,1.74c-.55-.48-.95-1.49-1.5-1.5-7.11-.86-14.25-2.04-21.36-1.98-1.36.01-3.81,5.03-3.83,7.76-.22,27.84-.17,55.68.17,83.52.04,3.29,1.41,7.38,3.63,9.68,12.65,13.11,25.75,25.79,39.69,39.6,13.79-13.03,27.5-25.12,39.98-38.36,3.43-3.64,4.38-10.74,4.44-16.28.38-32.96.2-65.94.11-98.91,0-2.64-.76-5.28-1.19-8.02Z"/><path class="cls-1" d="M330.99,303.67c2.84-.9,5.07-3.85,7.44-6.01,4.71-4.28,9.33-8.67,17.49-16.29,13.49,14.91,26.08,28.82,39.33,43.45,1.23-2.52,2.08-3.46,2.08-4.4.21-35.89.53-71.79.26-107.68-.03-4.3-2.31-9.54-5.3-12.7-10.55-11.15-22.04-21.4-32.81-32.35-4.8-4.88-8.05-4.36-12.59.41-10.09,10.59-21.1,20.33-30.92,31.15-3.32,3.65-5.78,9.48-5.92,14.39-.73,24.53-.51,49.08-.72,73.63-.14,16.46,6.04,21.36,21.66,16.39Z"/><path class="cls-1" d="M881.54,690.51c-4.15-3.72-10.71-6.54-16.23-6.64-33.67-.63-67.35-.39-101.03-.36-3.02,0-6.03.64-12.05,1.33,13.96,13.74,25.62,25.63,37.76,37.01,5.62,5.26,5.82,9.34-.03,14.31-3.87,3.29-8.87,6.64-10.4,11-2.41,6.85-3.4,14.71-2.6,21.87.21,1.91,9.11,3.96,14.05,4.04,24.16.39,48.32.24,72.48,0,3.82-.04,8.76-.33,11.24-2.61,14.75-13.56,28.92-27.74,44.48-42.88-13.7-13.64-25.21-25.89-37.68-37.07Z"/><path class="cls-1" d="M601.19,541.74c-4.51-4.82-8.06-8-10.84-11.76-2.46-3.33-4.93-7.11-5.81-11.04-1.02-4.53.5-9.66-.66-14.12-.66-2.52-4.67-6.16-6.86-5.96-13.15,1.22-23.08-3.47-31.79-13.17-1.63-1.82-9.39-1.18-11.53,1.03-8.12,8.4-16.77,13.44-28.91,11.75-6.61-.92-10.28,2.15-9.25,9.64,1.47,10.77-1,20.13-10.36,26.98-2.15,1.57-3.35,4.44-5.73,7.72,13.48,7.53,18.47,18.64,16.1,33.2-1.23,7.57,4.2,8.67,9.68,7.91,11.98-1.66,21.4,2.3,28.55,11.81,3.84,5.1,8.27,5.12,11.78.59,8.2-10.59,18.6-14.05,31.62-12.7,2.1.22,7.03-4.83,6.73-6.87-2.23-15.14,4.18-25.96,17.28-35Z"/></svg>
